<mxfile host="Electron" modified="2020-11-11T09:54:59.287Z" agent="5.0 (X11; Linux x86_64) AppleWebKit/537.36 (KHTML, like Gecko) draw.io/13.3.9 Chrome/83.0.4103.119 Electron/9.0.5 Safari/537.36" etag="XG4Uv8nAirhq3twjMcXl" compressed="false" version="13.3.9" type="device">
  <diagram id="SuTt-NehiLuuTij5P4sI" name="Page-1">
    <mxGraphModel dx="1038" dy="1736" grid="1" gridSize="10" guides="0" tooltips="1" connect="0" arrows="0" fold="1" page="1" pageScale="1" pageWidth="850" pageHeight="1100" math="0" shadow="0">
      <root>
        <mxCell id="0" />
        <mxCell id="1" parent="0" />
        <mxCell id="YUqFAI1fPI6s1_6WJg1y-50" value="" style="rounded=1;whiteSpace=wrap;html=1;fillColor=#e1d5e7;strokeColor=none;" parent="1" vertex="1">
          <mxGeometry x="320" y="380" width="90" height="20" as="geometry" />
        </mxCell>
        <mxCell id="YUqFAI1fPI6s1_6WJg1y-48" value="" style="rounded=1;whiteSpace=wrap;html=1;fillColor=#e1d5e7;strokeColor=none;" parent="1" vertex="1">
          <mxGeometry x="270" y="170" width="60" height="20" as="geometry" />
        </mxCell>
        <mxCell id="SXocVV9CbVZLcEvbND_1-63" value="" style="rounded=1;whiteSpace=wrap;html=1;fillColor=#fad7ac;strokeColor=none;" parent="1" vertex="1">
          <mxGeometry x="260" y="250" width="50" height="20" as="geometry" />
        </mxCell>
        <mxCell id="SXocVV9CbVZLcEvbND_1-67" value="" style="rounded=1;whiteSpace=wrap;html=1;fillColor=#fad7ac;strokeColor=none;" parent="1" vertex="1">
          <mxGeometry x="300" y="460" width="110" height="30" as="geometry" />
        </mxCell>
        <mxCell id="SXocVV9CbVZLcEvbND_1-65" value="" style="rounded=1;whiteSpace=wrap;html=1;fillColor=#fad7ac;strokeColor=none;" parent="1" vertex="1">
          <mxGeometry x="400" y="440" width="240" height="50" as="geometry" />
        </mxCell>
        <mxCell id="SXocVV9CbVZLcEvbND_1-64" value="" style="rounded=1;whiteSpace=wrap;html=1;fillColor=#fad7ac;strokeColor=none;" parent="1" vertex="1">
          <mxGeometry x="300" y="260" width="10" height="220" as="geometry" />
        </mxCell>
        <mxCell id="SXocVV9CbVZLcEvbND_1-4" value="" style="endArrow=none;dashed=1;html=1;strokeWidth=8;dashPattern=1 1;fillColor=#dae8fc;strokeColor=#6c8ebf;" parent="1" edge="1">
          <mxGeometry width="50" height="50" relative="1" as="geometry">
            <mxPoint x="160" y="290" as="sourcePoint" />
            <mxPoint x="280" y="290" as="targetPoint" />
          </mxGeometry>
        </mxCell>
        <mxCell id="SXocVV9CbVZLcEvbND_1-6" value="" style="endArrow=none;dashed=1;html=1;strokeWidth=8;dashPattern=1 1;fillColor=#d5e8d4;strokeColor=#82b366;" parent="1" edge="1">
          <mxGeometry width="50" height="50" relative="1" as="geometry">
            <mxPoint x="40" y="300" as="sourcePoint" />
            <mxPoint x="160" y="300" as="targetPoint" />
          </mxGeometry>
        </mxCell>
        <mxCell id="SXocVV9CbVZLcEvbND_1-8" value="" style="endArrow=none;dashed=1;html=1;strokeWidth=8;dashPattern=1 1;fillColor=#ffe6cc;strokeColor=#d79b00;" parent="1" edge="1">
          <mxGeometry width="50" height="50" relative="1" as="geometry">
            <mxPoint x="40" y="310" as="sourcePoint" />
            <mxPoint x="280" y="310" as="targetPoint" />
          </mxGeometry>
        </mxCell>
        <mxCell id="2WuyQpKn6ZRK7S6kR3wH-21" value="" style="endArrow=none;dashed=1;html=1;strokeWidth=8;dashPattern=1 1;fillColor=#dae8fc;strokeColor=#6c8ebf;" parent="1" edge="1">
          <mxGeometry width="50" height="50" relative="1" as="geometry">
            <mxPoint x="520" y="60" as="sourcePoint" />
            <mxPoint x="640" y="60" as="targetPoint" />
          </mxGeometry>
        </mxCell>
        <mxCell id="2WuyQpKn6ZRK7S6kR3wH-23" value="" style="endArrow=none;dashed=1;html=1;strokeWidth=8;dashPattern=1 1;fillColor=#d5e8d4;strokeColor=#82b366;" parent="1" edge="1">
          <mxGeometry width="50" height="50" relative="1" as="geometry">
            <mxPoint x="400" y="70" as="sourcePoint" />
            <mxPoint x="520" y="70" as="targetPoint" />
          </mxGeometry>
        </mxCell>
        <mxCell id="2WuyQpKn6ZRK7S6kR3wH-25" value="" style="endArrow=none;dashed=1;html=1;strokeWidth=8;dashPattern=1 1;fillColor=#ffe6cc;strokeColor=#d79b00;" parent="1" edge="1">
          <mxGeometry width="50" height="50" relative="1" as="geometry">
            <mxPoint x="400" y="80" as="sourcePoint" />
            <mxPoint x="520" y="80" as="targetPoint" />
          </mxGeometry>
        </mxCell>
        <mxCell id="2WuyQpKn6ZRK7S6kR3wH-27" value="" style="endArrow=none;dashed=1;html=1;strokeWidth=8;dashPattern=1 1;fillColor=#bac8d3;strokeColor=#23445d;" parent="1" edge="1">
          <mxGeometry width="50" height="50" relative="1" as="geometry">
            <mxPoint x="400" y="90" as="sourcePoint" />
            <mxPoint x="520" y="90" as="targetPoint" />
          </mxGeometry>
        </mxCell>
        <mxCell id="2WuyQpKn6ZRK7S6kR3wH-29" value="" style="endArrow=none;dashed=1;html=1;strokeWidth=8;dashPattern=1 1;fillColor=#fad9d5;strokeColor=#ae4132;" parent="1" edge="1">
          <mxGeometry width="50" height="50" relative="1" as="geometry">
            <mxPoint x="400" y="100" as="sourcePoint" />
            <mxPoint x="640" y="100" as="targetPoint" />
          </mxGeometry>
        </mxCell>
        <mxCell id="2WuyQpKn6ZRK7S6kR3wH-13" value="" style="endArrow=none;dashed=1;html=1;strokeWidth=8;dashPattern=1 1;fillColor=#dae8fc;strokeColor=#6c8ebf;" parent="1" edge="1">
          <mxGeometry width="50" height="50" relative="1" as="geometry">
            <mxPoint x="520" y="150" as="sourcePoint" />
            <mxPoint x="640" y="150" as="targetPoint" />
          </mxGeometry>
        </mxCell>
        <mxCell id="2WuyQpKn6ZRK7S6kR3wH-15" value="" style="endArrow=none;dashed=1;html=1;strokeWidth=8;dashPattern=1 1;fillColor=#d5e8d4;strokeColor=#82b366;" parent="1" edge="1">
          <mxGeometry width="50" height="50" relative="1" as="geometry">
            <mxPoint x="400" y="160" as="sourcePoint" />
            <mxPoint x="520" y="160" as="targetPoint" />
          </mxGeometry>
        </mxCell>
        <mxCell id="2WuyQpKn6ZRK7S6kR3wH-17" value="" style="endArrow=none;dashed=1;html=1;strokeWidth=8;dashPattern=1 1;fillColor=#ffe6cc;strokeColor=#d79b00;" parent="1" edge="1">
          <mxGeometry width="50" height="50" relative="1" as="geometry">
            <mxPoint x="400" y="170" as="sourcePoint" />
            <mxPoint x="520" y="170" as="targetPoint" />
          </mxGeometry>
        </mxCell>
        <mxCell id="2WuyQpKn6ZRK7S6kR3wH-19" value="" style="endArrow=none;dashed=1;html=1;strokeWidth=8;dashPattern=1 1;fillColor=#bac8d3;strokeColor=#23445d;" parent="1" edge="1">
          <mxGeometry width="50" height="50" relative="1" as="geometry">
            <mxPoint x="400" y="180" as="sourcePoint" />
            <mxPoint x="520" y="180" as="targetPoint" />
          </mxGeometry>
        </mxCell>
        <mxCell id="2WuyQpKn6ZRK7S6kR3wH-5" value="" style="endArrow=none;dashed=1;html=1;strokeWidth=8;dashPattern=1 1;fillColor=#dae8fc;strokeColor=#6c8ebf;" parent="1" edge="1">
          <mxGeometry width="50" height="50" relative="1" as="geometry">
            <mxPoint x="520" y="230" as="sourcePoint" />
            <mxPoint x="640" y="230" as="targetPoint" />
          </mxGeometry>
        </mxCell>
        <mxCell id="2WuyQpKn6ZRK7S6kR3wH-7" value="" style="endArrow=none;dashed=1;html=1;strokeWidth=8;dashPattern=1 1;fillColor=#d5e8d4;strokeColor=#82b366;" parent="1" edge="1">
          <mxGeometry width="50" height="50" relative="1" as="geometry">
            <mxPoint x="400" y="240" as="sourcePoint" />
            <mxPoint x="520" y="240" as="targetPoint" />
          </mxGeometry>
        </mxCell>
        <mxCell id="2WuyQpKn6ZRK7S6kR3wH-9" value="" style="endArrow=none;dashed=1;html=1;strokeWidth=8;dashPattern=1 1;fillColor=#ffe6cc;strokeColor=#d79b00;" parent="1" edge="1">
          <mxGeometry width="50" height="50" relative="1" as="geometry">
            <mxPoint x="400" y="250" as="sourcePoint" />
            <mxPoint x="520" y="250" as="targetPoint" />
          </mxGeometry>
        </mxCell>
        <mxCell id="rswDAVN-zbumqpKh8glA-41" value="" style="rounded=1;whiteSpace=wrap;html=1;shadow=1;" parent="1" vertex="1">
          <mxGeometry x="410" y="510" width="240" height="20" as="geometry" />
        </mxCell>
        <mxCell id="rswDAVN-zbumqpKh8glA-23" value="" style="endArrow=none;dashed=1;html=1;strokeWidth=8;dashPattern=1 1;fillColor=#dae8fc;strokeColor=#6c8ebf;" parent="1" edge="1">
          <mxGeometry width="50" height="50" relative="1" as="geometry">
            <mxPoint x="160" y="360" as="sourcePoint" />
            <mxPoint x="280" y="360" as="targetPoint" />
          </mxGeometry>
        </mxCell>
        <mxCell id="rswDAVN-zbumqpKh8glA-25" value="" style="endArrow=none;dashed=1;html=1;strokeWidth=8;dashPattern=1 1;fillColor=#d5e8d4;strokeColor=#82b366;" parent="1" edge="1">
          <mxGeometry width="50" height="50" relative="1" as="geometry">
            <mxPoint x="40" y="370" as="sourcePoint" />
            <mxPoint x="160" y="370" as="targetPoint" />
          </mxGeometry>
        </mxCell>
        <mxCell id="rswDAVN-zbumqpKh8glA-19" value="" style="endArrow=none;dashed=1;html=1;strokeWidth=8;dashPattern=1 1;fillColor=#dae8fc;strokeColor=#6c8ebf;" parent="1" edge="1">
          <mxGeometry width="50" height="50" relative="1" as="geometry">
            <mxPoint x="160" y="420" as="sourcePoint" />
            <mxPoint x="280" y="420" as="targetPoint" />
          </mxGeometry>
        </mxCell>
        <mxCell id="rswDAVN-zbumqpKh8glA-1" value="Hardware Resouces" style="rounded=0;whiteSpace=wrap;html=1;fillColor=#f5f5f5;strokeColor=#666666;fontColor=#333333;" parent="1" vertex="1">
          <mxGeometry x="40" y="510" width="240" height="20" as="geometry" />
        </mxCell>
        <mxCell id="rswDAVN-zbumqpKh8glA-2" value="Privilege Instrs" style="rounded=0;whiteSpace=wrap;html=1;fillColor=#f8cecc;strokeColor=#b85450;" parent="1" vertex="1">
          <mxGeometry x="40" y="470" width="120" height="20" as="geometry" />
        </mxCell>
        <mxCell id="rswDAVN-zbumqpKh8glA-3" value="User-Space Instrs" style="rounded=0;whiteSpace=wrap;html=1;fillColor=#dae8fc;strokeColor=#6c8ebf;" parent="1" vertex="1">
          <mxGeometry x="160" y="470" width="120" height="20" as="geometry" />
        </mxCell>
        <mxCell id="rswDAVN-zbumqpKh8glA-4" value="" style="endArrow=none;dashed=1;html=1;strokeWidth=8;dashPattern=1 1;fillColor=#f5f5f5;strokeColor=#666666;" parent="1" edge="1">
          <mxGeometry width="50" height="50" relative="1" as="geometry">
            <mxPoint x="40" y="510" as="sourcePoint" />
            <mxPoint x="280" y="510" as="targetPoint" />
          </mxGeometry>
        </mxCell>
        <mxCell id="rswDAVN-zbumqpKh8glA-7" value="Linux Kernel" style="rounded=0;whiteSpace=wrap;html=1;fillColor=#d5e8d4;strokeColor=#82b366;" parent="1" vertex="1">
          <mxGeometry x="40" y="430" width="240" height="20" as="geometry" />
        </mxCell>
        <mxCell id="rswDAVN-zbumqpKh8glA-8" value="" style="endArrow=none;dashed=1;html=1;strokeWidth=8;dashPattern=1 1;fillColor=#f8cecc;strokeColor=#b85450;" parent="1" edge="1">
          <mxGeometry width="50" height="50" relative="1" as="geometry">
            <mxPoint x="40" y="470" as="sourcePoint" />
            <mxPoint x="160" y="470" as="targetPoint" />
          </mxGeometry>
        </mxCell>
        <mxCell id="rswDAVN-zbumqpKh8glA-9" value="" style="endArrow=none;dashed=1;html=1;strokeWidth=8;dashPattern=1 1;fillColor=#dae8fc;strokeColor=#6c8ebf;" parent="1" edge="1">
          <mxGeometry width="50" height="50" relative="1" as="geometry">
            <mxPoint x="160" y="470" as="sourcePoint" />
            <mxPoint x="280" y="470" as="targetPoint" />
          </mxGeometry>
        </mxCell>
        <mxCell id="rswDAVN-zbumqpKh8glA-17" value="" style="endArrow=none;dashed=1;html=1;strokeWidth=8;dashPattern=1 1;fillColor=#d5e8d4;strokeColor=#82b366;" parent="1" edge="1">
          <mxGeometry width="50" height="50" relative="1" as="geometry">
            <mxPoint x="40" y="430" as="sourcePoint" />
            <mxPoint x="160" y="430" as="targetPoint" />
          </mxGeometry>
        </mxCell>
        <mxCell id="rswDAVN-zbumqpKh8glA-20" value="Libraries" style="rounded=0;whiteSpace=wrap;html=1;fillColor=#ffe6cc;strokeColor=#d79b00;" parent="1" vertex="1">
          <mxGeometry x="40" y="380" width="240" height="20" as="geometry" />
        </mxCell>
        <mxCell id="rswDAVN-zbumqpKh8glA-21" value="" style="endArrow=none;dashed=1;html=1;strokeWidth=8;dashPattern=1 1;fillColor=#ffe6cc;strokeColor=#d79b00;" parent="1" edge="1">
          <mxGeometry width="50" height="50" relative="1" as="geometry">
            <mxPoint x="40" y="380" as="sourcePoint" />
            <mxPoint x="280" y="380" as="targetPoint" />
          </mxGeometry>
        </mxCell>
        <mxCell id="rswDAVN-zbumqpKh8glA-26" value="System Applications (winedevice.exe...)" style="rounded=0;whiteSpace=wrap;html=1;fillColor=#fff2cc;strokeColor=#d6b656;" parent="1" vertex="1">
          <mxGeometry x="400" y="110" width="240" height="20" as="geometry" />
        </mxCell>
        <mxCell id="rswDAVN-zbumqpKh8glA-34" value="Windows User Application" style="rounded=0;whiteSpace=wrap;html=1;fillColor=#e1d5e7;strokeColor=#9673a6;" parent="1" vertex="1">
          <mxGeometry x="400" y="-80" width="240" height="20" as="geometry" />
        </mxCell>
        <mxCell id="rswDAVN-zbumqpKh8glA-37" value="&lt;b&gt;Legend&lt;/b&gt;" style="text;html=1;align=center;verticalAlign=middle;resizable=0;points=[];autosize=1;" parent="1" vertex="1">
          <mxGeometry x="410" y="510" width="60" height="20" as="geometry" />
        </mxCell>
        <mxCell id="rswDAVN-zbumqpKh8glA-38" value="" style="endArrow=none;dashed=1;html=1;strokeWidth=8;dashPattern=1 1;" parent="1" edge="1">
          <mxGeometry width="50" height="50" relative="1" as="geometry">
            <mxPoint x="470" y="520" as="sourcePoint" />
            <mxPoint x="500" y="520" as="targetPoint" />
          </mxGeometry>
        </mxCell>
        <mxCell id="rswDAVN-zbumqpKh8glA-39" value="Interface for higher layer" style="text;html=1;align=left;verticalAlign=middle;resizable=0;points=[];autosize=1;" parent="1" vertex="1">
          <mxGeometry x="500" y="510" width="150" height="20" as="geometry" />
        </mxCell>
        <mxCell id="2WuyQpKn6ZRK7S6kR3wH-2" value="Kernel32.dll (Win32 Subsystem)" style="rounded=0;whiteSpace=wrap;html=1;fillColor=#bac8d3;strokeColor=#23445d;" parent="1" vertex="1">
          <mxGeometry x="400" y="260" width="240" height="20" as="geometry" />
        </mxCell>
        <mxCell id="2WuyQpKn6ZRK7S6kR3wH-3" value="" style="endArrow=none;dashed=1;html=1;strokeWidth=8;dashPattern=1 1;fillColor=#bac8d3;strokeColor=#23445d;" parent="1" edge="1">
          <mxGeometry width="50" height="50" relative="1" as="geometry">
            <mxPoint x="400" y="260" as="sourcePoint" />
            <mxPoint x="520" y="260" as="targetPoint" />
          </mxGeometry>
        </mxCell>
        <mxCell id="2WuyQpKn6ZRK7S6kR3wH-10" value="Other .dlls" style="rounded=0;whiteSpace=wrap;html=1;fillColor=#fad9d5;strokeColor=#ae4132;" parent="1" vertex="1">
          <mxGeometry x="400" y="190" width="240" height="20" as="geometry" />
        </mxCell>
        <mxCell id="2WuyQpKn6ZRK7S6kR3wH-11" value="" style="endArrow=none;dashed=1;html=1;strokeWidth=8;dashPattern=1 1;fillColor=#fad9d5;strokeColor=#ae4132;" parent="1" edge="1">
          <mxGeometry width="50" height="50" relative="1" as="geometry">
            <mxPoint x="400" y="190" as="sourcePoint" />
            <mxPoint x="640" y="190" as="targetPoint" />
          </mxGeometry>
        </mxCell>
        <mxCell id="2WuyQpKn6ZRK7S6kR3wH-30" value="" style="endArrow=none;dashed=1;html=1;strokeWidth=8;dashPattern=1 1;fillColor=#fff2cc;strokeColor=#d6b656;" parent="1" edge="1">
          <mxGeometry width="50" height="50" relative="1" as="geometry">
            <mxPoint x="400" y="110" as="sourcePoint" />
            <mxPoint x="640" y="110" as="targetPoint" />
          </mxGeometry>
        </mxCell>
        <mxCell id="SXocVV9CbVZLcEvbND_1-1" value="System Applications" style="rounded=0;whiteSpace=wrap;html=1;fillColor=#fff2cc;strokeColor=#d6b656;" parent="1" vertex="1">
          <mxGeometry x="40" y="320" width="240" height="20" as="geometry" />
        </mxCell>
        <mxCell id="SXocVV9CbVZLcEvbND_1-2" value="" style="endArrow=none;dashed=1;html=1;strokeWidth=8;dashPattern=1 1;fillColor=#fff2cc;strokeColor=#d6b656;" parent="1" edge="1">
          <mxGeometry width="50" height="50" relative="1" as="geometry">
            <mxPoint x="40" y="320" as="sourcePoint" />
            <mxPoint x="280" y="320" as="targetPoint" />
          </mxGeometry>
        </mxCell>
        <mxCell id="SXocVV9CbVZLcEvbND_1-22" value="NT Kernel (wineserver)" style="rounded=0;whiteSpace=wrap;html=1;fillColor=#fad7ac;strokeColor=#b46504;gradientDirection=north;gradientColor=#D5E8D4;" parent="1" vertex="1">
          <mxGeometry x="400" y="430" width="240" height="20" as="geometry" />
        </mxCell>
        <mxCell id="SXocVV9CbVZLcEvbND_1-23" value="" style="endArrow=none;dashed=1;html=1;strokeWidth=8;dashPattern=1 1;fillColor=#d5e8d4;strokeColor=#82b366;" parent="1" edge="1">
          <mxGeometry width="50" height="50" relative="1" as="geometry">
            <mxPoint x="400" y="430" as="sourcePoint" />
            <mxPoint x="520" y="430" as="targetPoint" />
          </mxGeometry>
        </mxCell>
        <mxCell id="SXocVV9CbVZLcEvbND_1-24" value="" style="endArrow=none;dashed=1;html=1;strokeWidth=8;dashPattern=1 1;fillColor=#dae8fc;strokeColor=#6c8ebf;" parent="1" edge="1">
          <mxGeometry width="50" height="50" relative="1" as="geometry">
            <mxPoint x="520" y="420" as="sourcePoint" />
            <mxPoint x="640" y="420" as="targetPoint" />
          </mxGeometry>
        </mxCell>
        <mxCell id="SXocVV9CbVZLcEvbND_1-25" value="Ntdll.dll" style="rounded=0;whiteSpace=wrap;html=1;fillColor=#ffe6cc;strokeColor=#d79b00;" parent="1" vertex="1">
          <mxGeometry x="400" y="320" width="240" height="20" as="geometry" />
        </mxCell>
        <mxCell id="SXocVV9CbVZLcEvbND_1-26" value="" style="endArrow=none;dashed=1;html=1;strokeWidth=8;dashPattern=1 1;fillColor=#ffe6cc;strokeColor=#d79b00;" parent="1" edge="1">
          <mxGeometry width="50" height="50" relative="1" as="geometry">
            <mxPoint x="400" y="320" as="sourcePoint" />
            <mxPoint x="520" y="320" as="targetPoint" />
          </mxGeometry>
        </mxCell>
        <mxCell id="SXocVV9CbVZLcEvbND_1-27" value="" style="endArrow=none;dashed=1;html=1;strokeWidth=8;dashPattern=1 1;fillColor=#d5e8d4;strokeColor=#82b366;" parent="1" edge="1">
          <mxGeometry width="50" height="50" relative="1" as="geometry">
            <mxPoint x="400" y="310" as="sourcePoint" />
            <mxPoint x="520" y="310" as="targetPoint" />
          </mxGeometry>
        </mxCell>
        <mxCell id="SXocVV9CbVZLcEvbND_1-28" value="" style="endArrow=none;dashed=1;html=1;strokeWidth=8;dashPattern=1 1;fillColor=#dae8fc;strokeColor=#6c8ebf;" parent="1" edge="1">
          <mxGeometry width="50" height="50" relative="1" as="geometry">
            <mxPoint x="520" y="300" as="sourcePoint" />
            <mxPoint x="640" y="300" as="targetPoint" />
          </mxGeometry>
        </mxCell>
        <mxCell id="SXocVV9CbVZLcEvbND_1-31" value="" style="endArrow=none;html=1;strokeWidth=1;fillColor=#d5e8d4;strokeColor=#82b366;" parent="1" edge="1">
          <mxGeometry width="50" height="50" relative="1" as="geometry">
            <mxPoint x="40" y="430" as="sourcePoint" />
            <mxPoint x="40" y="370" as="targetPoint" />
            <Array as="points">
              <mxPoint x="30" y="430" />
              <mxPoint x="30" y="370" />
            </Array>
          </mxGeometry>
        </mxCell>
        <mxCell id="SXocVV9CbVZLcEvbND_1-32" value="" style="endArrow=none;html=1;strokeWidth=1;fillColor=#d5e8d4;strokeColor=#82b366;" parent="1" edge="1">
          <mxGeometry width="50" height="50" relative="1" as="geometry">
            <mxPoint x="40" y="430" as="sourcePoint" />
            <mxPoint x="40" y="300" as="targetPoint" />
            <Array as="points">
              <mxPoint x="30" y="430" />
              <mxPoint x="30" y="300" />
            </Array>
          </mxGeometry>
        </mxCell>
        <mxCell id="SXocVV9CbVZLcEvbND_1-33" value="" style="endArrow=none;html=1;strokeWidth=1;fillColor=#ffe6cc;strokeColor=#d79b00;" parent="1" edge="1">
          <mxGeometry width="50" height="50" relative="1" as="geometry">
            <mxPoint x="40" y="380" as="sourcePoint" />
            <mxPoint x="40" y="310" as="targetPoint" />
            <Array as="points">
              <mxPoint x="20" y="380" />
              <mxPoint x="20" y="310" />
            </Array>
          </mxGeometry>
        </mxCell>
        <mxCell id="SXocVV9CbVZLcEvbND_1-34" value="" style="endArrow=none;html=1;strokeWidth=1;fillColor=#dae8fc;strokeColor=#6c8ebf;" parent="1" edge="1">
          <mxGeometry width="50" height="50" relative="1" as="geometry">
            <mxPoint x="280" y="470" as="sourcePoint" />
            <mxPoint x="280" y="420" as="targetPoint" />
            <Array as="points">
              <mxPoint x="290" y="470" />
              <mxPoint x="290" y="420" />
            </Array>
          </mxGeometry>
        </mxCell>
        <mxCell id="SXocVV9CbVZLcEvbND_1-35" value="" style="endArrow=none;html=1;strokeWidth=1;fillColor=#dae8fc;strokeColor=#6c8ebf;" parent="1" edge="1">
          <mxGeometry width="50" height="50" relative="1" as="geometry">
            <mxPoint x="280" y="470" as="sourcePoint" />
            <mxPoint x="280" y="360" as="targetPoint" />
            <Array as="points">
              <mxPoint x="290" y="470" />
              <mxPoint x="290" y="360" />
            </Array>
          </mxGeometry>
        </mxCell>
        <mxCell id="SXocVV9CbVZLcEvbND_1-36" value="" style="endArrow=none;html=1;strokeWidth=1;fillColor=#dae8fc;strokeColor=#6c8ebf;" parent="1" edge="1">
          <mxGeometry width="50" height="50" relative="1" as="geometry">
            <mxPoint x="280" y="470" as="sourcePoint" />
            <mxPoint x="280" y="290" as="targetPoint" />
            <Array as="points">
              <mxPoint x="290" y="470" />
              <mxPoint x="290" y="290" />
            </Array>
          </mxGeometry>
        </mxCell>
        <mxCell id="SXocVV9CbVZLcEvbND_1-37" value="" style="endArrow=none;html=1;strokeWidth=1;fillColor=#dae8fc;strokeColor=#6c8ebf;" parent="1" edge="1">
          <mxGeometry width="50" height="50" relative="1" as="geometry">
            <mxPoint x="280" y="470" as="sourcePoint" />
            <mxPoint x="640" y="420" as="targetPoint" />
            <Array as="points">
              <mxPoint x="650" y="470" />
              <mxPoint x="650" y="420" />
            </Array>
          </mxGeometry>
        </mxCell>
        <mxCell id="SXocVV9CbVZLcEvbND_1-38" value="" style="endArrow=none;html=1;strokeWidth=1;fillColor=#dae8fc;strokeColor=#6c8ebf;" parent="1" edge="1">
          <mxGeometry width="50" height="50" relative="1" as="geometry">
            <mxPoint x="280" y="470" as="sourcePoint" />
            <mxPoint x="640" y="300" as="targetPoint" />
            <Array as="points">
              <mxPoint x="650" y="470" />
              <mxPoint x="650" y="300" />
            </Array>
          </mxGeometry>
        </mxCell>
        <mxCell id="SXocVV9CbVZLcEvbND_1-39" value="" style="endArrow=none;html=1;strokeWidth=1;fillColor=#dae8fc;strokeColor=#6c8ebf;" parent="1" edge="1">
          <mxGeometry width="50" height="50" relative="1" as="geometry">
            <mxPoint x="280" y="470" as="sourcePoint" />
            <mxPoint x="640" y="230" as="targetPoint" />
            <Array as="points">
              <mxPoint x="650" y="470" />
              <mxPoint x="650" y="230" />
            </Array>
          </mxGeometry>
        </mxCell>
        <mxCell id="SXocVV9CbVZLcEvbND_1-40" value="" style="endArrow=none;html=1;strokeWidth=1;fillColor=#dae8fc;strokeColor=#6c8ebf;" parent="1" edge="1">
          <mxGeometry width="50" height="50" relative="1" as="geometry">
            <mxPoint x="280" y="470" as="sourcePoint" />
            <mxPoint x="640" y="150" as="targetPoint" />
            <Array as="points">
              <mxPoint x="650" y="470" />
              <mxPoint x="650" y="150" />
            </Array>
          </mxGeometry>
        </mxCell>
        <mxCell id="SXocVV9CbVZLcEvbND_1-41" value="" style="endArrow=none;html=1;strokeWidth=1;fillColor=#dae8fc;strokeColor=#6c8ebf;" parent="1" edge="1">
          <mxGeometry width="50" height="50" relative="1" as="geometry">
            <mxPoint x="280" y="470" as="sourcePoint" />
            <mxPoint x="640" y="60" as="targetPoint" />
            <Array as="points">
              <mxPoint x="650" y="470" />
              <mxPoint x="650" y="60" />
            </Array>
          </mxGeometry>
        </mxCell>
        <mxCell id="SXocVV9CbVZLcEvbND_1-42" value="" style="endArrow=none;html=1;strokeWidth=1;fillColor=#ffe6cc;strokeColor=#d79b00;" parent="1" edge="1">
          <mxGeometry width="50" height="50" relative="1" as="geometry">
            <mxPoint x="400" y="320" as="sourcePoint" />
            <mxPoint x="400" y="250" as="targetPoint" />
            <Array as="points">
              <mxPoint x="380" y="320" />
              <mxPoint x="380" y="250" />
            </Array>
          </mxGeometry>
        </mxCell>
        <mxCell id="SXocVV9CbVZLcEvbND_1-43" value="" style="endArrow=none;html=1;strokeWidth=1;fillColor=#ffe6cc;strokeColor=#d79b00;" parent="1" edge="1">
          <mxGeometry width="50" height="50" relative="1" as="geometry">
            <mxPoint x="400" y="320" as="sourcePoint" />
            <mxPoint x="400" y="170" as="targetPoint" />
            <Array as="points">
              <mxPoint x="380" y="320" />
              <mxPoint x="380" y="170" />
            </Array>
          </mxGeometry>
        </mxCell>
        <mxCell id="SXocVV9CbVZLcEvbND_1-44" value="" style="endArrow=none;html=1;strokeWidth=1;fillColor=#ffe6cc;strokeColor=#d79b00;" parent="1" edge="1">
          <mxGeometry width="50" height="50" relative="1" as="geometry">
            <mxPoint x="400" y="320" as="sourcePoint" />
            <mxPoint x="400" y="80" as="targetPoint" />
            <Array as="points">
              <mxPoint x="380" y="320" />
              <mxPoint x="380" y="80" />
            </Array>
          </mxGeometry>
        </mxCell>
        <mxCell id="SXocVV9CbVZLcEvbND_1-45" value="" style="endArrow=none;html=1;strokeWidth=1;fillColor=#bac8d3;strokeColor=#23445d;" parent="1" edge="1">
          <mxGeometry width="50" height="50" relative="1" as="geometry">
            <mxPoint x="400" y="260" as="sourcePoint" />
            <mxPoint x="400" y="180" as="targetPoint" />
            <Array as="points">
              <mxPoint x="370" y="260" />
              <mxPoint x="370" y="180" />
            </Array>
          </mxGeometry>
        </mxCell>
        <mxCell id="SXocVV9CbVZLcEvbND_1-46" value="" style="endArrow=none;html=1;strokeWidth=1;fillColor=#bac8d3;strokeColor=#23445d;" parent="1" edge="1">
          <mxGeometry width="50" height="50" relative="1" as="geometry">
            <mxPoint x="400" y="260" as="sourcePoint" />
            <mxPoint x="400" y="90" as="targetPoint" />
            <Array as="points">
              <mxPoint x="370" y="260" />
              <mxPoint x="370" y="90" />
            </Array>
          </mxGeometry>
        </mxCell>
        <mxCell id="SXocVV9CbVZLcEvbND_1-48" value="" style="endArrow=none;html=1;strokeWidth=1;fillColor=#fad9d5;strokeColor=#ae4132;" parent="1" edge="1">
          <mxGeometry width="50" height="50" relative="1" as="geometry">
            <mxPoint x="400" y="190" as="sourcePoint" />
            <mxPoint x="400" y="100" as="targetPoint" />
            <Array as="points">
              <mxPoint x="360" y="190" />
              <mxPoint x="360" y="100" />
            </Array>
          </mxGeometry>
        </mxCell>
        <mxCell id="SXocVV9CbVZLcEvbND_1-50" value="WINE" style="rounded=0;whiteSpace=wrap;html=1;fillColor=#e1d5e7;strokeColor=#9673a6;" parent="1" vertex="1">
          <mxGeometry x="400" y="380" width="240" height="20" as="geometry" />
        </mxCell>
        <mxCell id="SXocVV9CbVZLcEvbND_1-51" value="User Application" style="rounded=0;whiteSpace=wrap;html=1;fillColor=#e1d5e7;strokeColor=#9673a6;" parent="1" vertex="1">
          <mxGeometry x="40" y="170" width="240" height="20" as="geometry" />
        </mxCell>
        <mxCell id="SXocVV9CbVZLcEvbND_1-54" value="" style="endArrow=none;dashed=1;html=1;strokeWidth=8;dashPattern=1 1;fillColor=#dae8fc;strokeColor=#6c8ebf;" parent="1" edge="1">
          <mxGeometry width="50" height="50" relative="1" as="geometry">
            <mxPoint x="520" y="360" as="sourcePoint" />
            <mxPoint x="640" y="360" as="targetPoint" />
          </mxGeometry>
        </mxCell>
        <mxCell id="SXocVV9CbVZLcEvbND_1-56" value="" style="endArrow=none;html=1;strokeWidth=1;fillColor=#dae8fc;strokeColor=#6c8ebf;" parent="1" edge="1">
          <mxGeometry width="50" height="50" relative="1" as="geometry">
            <mxPoint x="280" y="470" as="sourcePoint" />
            <mxPoint x="640" y="360" as="targetPoint" />
            <Array as="points">
              <mxPoint x="650" y="470" />
              <mxPoint x="650" y="360" />
            </Array>
          </mxGeometry>
        </mxCell>
        <mxCell id="SXocVV9CbVZLcEvbND_1-58" value="" style="endArrow=none;html=1;strokeWidth=1;fillColor=#d5e8d4;strokeColor=#82b366;" parent="1" edge="1">
          <mxGeometry width="50" height="50" relative="1" as="geometry">
            <mxPoint x="400" y="430" as="sourcePoint" />
            <mxPoint x="640" y="430" as="targetPoint" />
          </mxGeometry>
        </mxCell>
        <mxCell id="OKulLugyS5vY4aL4YYY0-1" value="" style="endArrow=none;html=1;dashed=1;fillColor=#d5e8d4;strokeColor=#82b366;" parent="1" edge="1">
          <mxGeometry width="50" height="50" relative="1" as="geometry">
            <mxPoint x="400" y="430" as="sourcePoint" />
            <mxPoint x="400" y="370" as="targetPoint" />
            <Array as="points">
              <mxPoint x="390" y="430" />
              <mxPoint x="390" y="370" />
            </Array>
          </mxGeometry>
        </mxCell>
        <mxCell id="OKulLugyS5vY4aL4YYY0-2" value="" style="endArrow=none;html=1;dashed=1;fillColor=#d5e8d4;strokeColor=#82b366;" parent="1" edge="1">
          <mxGeometry width="50" height="50" relative="1" as="geometry">
            <mxPoint x="400" y="430" as="sourcePoint" />
            <mxPoint x="400" y="310" as="targetPoint" />
            <Array as="points">
              <mxPoint x="390" y="430" />
              <mxPoint x="390" y="310" />
            </Array>
          </mxGeometry>
        </mxCell>
        <mxCell id="OKulLugyS5vY4aL4YYY0-3" value="" style="endArrow=none;html=1;dashed=1;fillColor=#d5e8d4;strokeColor=#82b366;" parent="1" edge="1">
          <mxGeometry width="50" height="50" relative="1" as="geometry">
            <mxPoint x="400" y="430" as="sourcePoint" />
            <mxPoint x="400" y="240" as="targetPoint" />
            <Array as="points">
              <mxPoint x="390" y="430" />
              <mxPoint x="390" y="240" />
            </Array>
          </mxGeometry>
        </mxCell>
        <mxCell id="OKulLugyS5vY4aL4YYY0-4" value="" style="endArrow=none;html=1;dashed=1;fillColor=#d5e8d4;strokeColor=#82b366;" parent="1" edge="1">
          <mxGeometry width="50" height="50" relative="1" as="geometry">
            <mxPoint x="400" y="430" as="sourcePoint" />
            <mxPoint x="400" y="160" as="targetPoint" />
            <Array as="points">
              <mxPoint x="390" y="430" />
              <mxPoint x="390" y="160" />
            </Array>
          </mxGeometry>
        </mxCell>
        <mxCell id="OKulLugyS5vY4aL4YYY0-5" value="&lt;b&gt;NOTED&lt;/b&gt;&lt;br&gt;Here &lt;font color=&quot;#82b366&quot;&gt;&lt;b&gt;dotted lines&lt;/b&gt;&lt;/font&gt; links to &lt;i&gt;NT Kernel&lt;/i&gt; means:&lt;br&gt;WINE currently does not support capturing&lt;br&gt;direct syscall into NT Kernel, such as,&lt;br&gt;int, syscall, sysenter instructions in x86-64" style="text;html=1;align=center;verticalAlign=middle;resizable=0;points=[];autosize=1;" parent="1" vertex="1">
          <mxGeometry x="40" y="-80" width="250" height="70" as="geometry" />
        </mxCell>
        <mxCell id="OKulLugyS5vY4aL4YYY0-6" value="According to LWN.net, WINE team is trying to &lt;br&gt;support capture direct syscall into NT kernel&lt;br&gt;by adding new features into Linux kernel" style="text;html=1;align=center;verticalAlign=middle;resizable=0;points=[];autosize=1;" parent="1" vertex="1">
          <mxGeometry x="40" y="10" width="260" height="50" as="geometry" />
        </mxCell>
        <mxCell id="OKulLugyS5vY4aL4YYY0-10" value="&lt;b&gt;Reference&lt;/b&gt;&lt;br&gt;Emulating Windows system calls in Linux&lt;br&gt;&lt;a href=&quot;https://lwn.net/Articles/824380/&quot;&gt;https://lwn.net/Articles/824380/&lt;/a&gt;" style="text;html=1;align=center;verticalAlign=middle;resizable=0;points=[];autosize=1;" parent="1" vertex="1">
          <mxGeometry x="50" y="70" width="230" height="50" as="geometry" />
        </mxCell>
        <mxCell id="OKulLugyS5vY4aL4YYY0-11" value="Emulating Windows system calls, take 2&lt;br&gt;&lt;a href=&quot;https://lwn.net/Articles/826313/&quot;&gt;https://lwn.net/Articles/826313/&lt;/a&gt;" style="text;html=1;align=center;verticalAlign=middle;resizable=0;points=[];autosize=1;" parent="1" vertex="1">
          <mxGeometry x="50" y="130" width="230" height="30" as="geometry" />
        </mxCell>
        <mxCell id="YUqFAI1fPI6s1_6WJg1y-1" value="Other User Applications" style="rounded=0;whiteSpace=wrap;html=1;fillColor=#fad7ac;strokeColor=#b46504;" parent="1" vertex="1">
          <mxGeometry x="40" y="250" width="240" height="20" as="geometry" />
        </mxCell>
        <mxCell id="YUqFAI1fPI6s1_6WJg1y-2" value="" style="endArrow=none;dashed=1;html=1;strokeWidth=8;dashPattern=1 1;fillColor=#dae8fc;strokeColor=#6c8ebf;" parent="1" edge="1">
          <mxGeometry width="50" height="50" relative="1" as="geometry">
            <mxPoint x="160" y="210" as="sourcePoint" />
            <mxPoint x="280" y="210" as="targetPoint" />
          </mxGeometry>
        </mxCell>
        <mxCell id="YUqFAI1fPI6s1_6WJg1y-3" value="" style="endArrow=none;dashed=1;html=1;strokeWidth=8;dashPattern=1 1;fillColor=#d5e8d4;strokeColor=#82b366;" parent="1" edge="1">
          <mxGeometry width="50" height="50" relative="1" as="geometry">
            <mxPoint x="40" y="220" as="sourcePoint" />
            <mxPoint x="160" y="220" as="targetPoint" />
          </mxGeometry>
        </mxCell>
        <mxCell id="YUqFAI1fPI6s1_6WJg1y-4" value="" style="endArrow=none;dashed=1;html=1;strokeWidth=8;dashPattern=1 1;fillColor=#ffe6cc;strokeColor=#d79b00;" parent="1" edge="1">
          <mxGeometry width="50" height="50" relative="1" as="geometry">
            <mxPoint x="40" y="230" as="sourcePoint" />
            <mxPoint x="280" y="230" as="targetPoint" />
          </mxGeometry>
        </mxCell>
        <mxCell id="YUqFAI1fPI6s1_6WJg1y-5" value="" style="endArrow=none;dashed=1;html=1;strokeWidth=8;dashPattern=1 1;fillColor=#fff2cc;strokeColor=#d6b656;" parent="1" edge="1">
          <mxGeometry width="50" height="50" relative="1" as="geometry">
            <mxPoint x="40" y="240" as="sourcePoint" />
            <mxPoint x="280" y="240" as="targetPoint" />
          </mxGeometry>
        </mxCell>
        <mxCell id="YUqFAI1fPI6s1_6WJg1y-6" value="" style="endArrow=none;dashed=1;html=1;strokeWidth=8;dashPattern=1 1;fillColor=#fad7ac;strokeColor=#b46504;" parent="1" edge="1">
          <mxGeometry width="50" height="50" relative="1" as="geometry">
            <mxPoint x="40" y="250" as="sourcePoint" />
            <mxPoint x="280" y="250" as="targetPoint" />
          </mxGeometry>
        </mxCell>
        <mxCell id="YUqFAI1fPI6s1_6WJg1y-49" value="" style="rounded=1;whiteSpace=wrap;html=1;fillColor=#e1d5e7;strokeColor=none;" parent="1" vertex="1">
          <mxGeometry x="320" y="180" width="10" height="210" as="geometry" />
        </mxCell>
        <mxCell id="YUqFAI1fPI6s1_6WJg1y-52" value="" style="endArrow=none;dashed=1;html=1;strokeWidth=8;dashPattern=1 1;fillColor=#d5e8d4;strokeColor=#82b366;" parent="1" edge="1">
          <mxGeometry width="50" height="50" relative="1" as="geometry">
            <mxPoint x="400" y="370" as="sourcePoint" />
            <mxPoint x="520" y="370" as="targetPoint" />
          </mxGeometry>
        </mxCell>
        <mxCell id="YUqFAI1fPI6s1_6WJg1y-75" value="Other Windows User Applications" style="rounded=0;whiteSpace=wrap;html=1;fillColor=#fad7ac;strokeColor=#b46504;" parent="1" vertex="1">
          <mxGeometry x="400" y="20" width="240" height="20" as="geometry" />
        </mxCell>
        <mxCell id="YUqFAI1fPI6s1_6WJg1y-76" value="" style="endArrow=none;dashed=1;html=1;strokeWidth=8;dashPattern=1 1;fillColor=#fad7ac;strokeColor=#b46504;" parent="1" edge="1">
          <mxGeometry width="50" height="50" relative="1" as="geometry">
            <mxPoint x="399.9999999999999" y="20" as="sourcePoint" />
            <mxPoint x="640" y="20" as="targetPoint" />
          </mxGeometry>
        </mxCell>
        <mxCell id="YUqFAI1fPI6s1_6WJg1y-77" value="" style="endArrow=none;dashed=1;html=1;strokeWidth=8;dashPattern=1 1;fillColor=#dae8fc;strokeColor=#6c8ebf;" parent="1" edge="1">
          <mxGeometry width="50" height="50" relative="1" as="geometry">
            <mxPoint x="520" y="-40" as="sourcePoint" />
            <mxPoint x="640" y="-40" as="targetPoint" />
          </mxGeometry>
        </mxCell>
        <mxCell id="YUqFAI1fPI6s1_6WJg1y-78" value="" style="endArrow=none;dashed=1;html=1;strokeWidth=8;dashPattern=1 1;fillColor=#d5e8d4;strokeColor=#82b366;" parent="1" edge="1">
          <mxGeometry width="50" height="50" relative="1" as="geometry">
            <mxPoint x="400" y="-30" as="sourcePoint" />
            <mxPoint x="520" y="-30" as="targetPoint" />
          </mxGeometry>
        </mxCell>
        <mxCell id="YUqFAI1fPI6s1_6WJg1y-79" value="" style="endArrow=none;dashed=1;html=1;strokeWidth=8;dashPattern=1 1;fillColor=#ffe6cc;strokeColor=#d79b00;" parent="1" edge="1">
          <mxGeometry width="50" height="50" relative="1" as="geometry">
            <mxPoint x="400" y="-20" as="sourcePoint" />
            <mxPoint x="520" y="-20" as="targetPoint" />
          </mxGeometry>
        </mxCell>
        <mxCell id="YUqFAI1fPI6s1_6WJg1y-80" value="" style="endArrow=none;dashed=1;html=1;strokeWidth=8;dashPattern=1 1;fillColor=#bac8d3;strokeColor=#23445d;" parent="1" edge="1">
          <mxGeometry width="50" height="50" relative="1" as="geometry">
            <mxPoint x="400" y="-10" as="sourcePoint" />
            <mxPoint x="520" y="-10" as="targetPoint" />
          </mxGeometry>
        </mxCell>
        <mxCell id="YUqFAI1fPI6s1_6WJg1y-81" value="" style="endArrow=none;dashed=1;html=1;strokeWidth=8;dashPattern=1 1;fillColor=#fad9d5;strokeColor=#ae4132;" parent="1" edge="1">
          <mxGeometry width="50" height="50" relative="1" as="geometry">
            <mxPoint x="400" as="sourcePoint" />
            <mxPoint x="640" as="targetPoint" />
          </mxGeometry>
        </mxCell>
        <mxCell id="YUqFAI1fPI6s1_6WJg1y-82" value="" style="endArrow=none;dashed=1;html=1;strokeWidth=8;dashPattern=1 1;fillColor=#fff2cc;strokeColor=#d6b656;" parent="1" edge="1">
          <mxGeometry width="50" height="50" relative="1" as="geometry">
            <mxPoint x="400" y="10" as="sourcePoint" />
            <mxPoint x="640" y="10" as="targetPoint" />
          </mxGeometry>
        </mxCell>
        <mxCell id="YUqFAI1fPI6s1_6WJg1y-83" value="" style="endArrow=none;html=1;dashed=1;fillColor=#d5e8d4;strokeColor=#82b366;" parent="1" edge="1">
          <mxGeometry width="50" height="50" relative="1" as="geometry">
            <mxPoint x="400" y="430" as="sourcePoint" />
            <mxPoint x="400" y="70" as="targetPoint" />
            <Array as="points">
              <mxPoint x="390" y="430" />
              <mxPoint x="390" y="70" />
            </Array>
          </mxGeometry>
        </mxCell>
        <mxCell id="YUqFAI1fPI6s1_6WJg1y-84" value="" style="endArrow=none;html=1;dashed=1;fillColor=#d5e8d4;strokeColor=#82b366;" parent="1" edge="1">
          <mxGeometry width="50" height="50" relative="1" as="geometry">
            <mxPoint x="400" y="430" as="sourcePoint" />
            <mxPoint x="400" y="-30" as="targetPoint" />
            <Array as="points">
              <mxPoint x="390" y="430" />
              <mxPoint x="390" y="-30" />
            </Array>
          </mxGeometry>
        </mxCell>
        <mxCell id="YUqFAI1fPI6s1_6WJg1y-85" value="" style="endArrow=none;html=1;strokeWidth=1;fillColor=#dae8fc;strokeColor=#6c8ebf;" parent="1" edge="1">
          <mxGeometry width="50" height="50" relative="1" as="geometry">
            <mxPoint x="280" y="470" as="sourcePoint" />
            <mxPoint x="640" y="-40" as="targetPoint" />
            <Array as="points">
              <mxPoint x="650" y="470" />
              <mxPoint x="650" y="-40" />
            </Array>
          </mxGeometry>
        </mxCell>
        <mxCell id="YUqFAI1fPI6s1_6WJg1y-86" value="" style="endArrow=none;html=1;strokeWidth=1;fillColor=#ffe6cc;strokeColor=#d79b00;" parent="1" edge="1">
          <mxGeometry width="50" height="50" relative="1" as="geometry">
            <mxPoint x="400" y="320" as="sourcePoint" />
            <mxPoint x="400" y="-20" as="targetPoint" />
            <Array as="points">
              <mxPoint x="380" y="320" />
              <mxPoint x="380" y="-20" />
            </Array>
          </mxGeometry>
        </mxCell>
        <mxCell id="YUqFAI1fPI6s1_6WJg1y-87" value="" style="endArrow=none;html=1;strokeWidth=1;fillColor=#bac8d3;strokeColor=#23445d;" parent="1" edge="1">
          <mxGeometry width="50" height="50" relative="1" as="geometry">
            <mxPoint x="400" y="260" as="sourcePoint" />
            <mxPoint x="400" y="-10" as="targetPoint" />
            <Array as="points">
              <mxPoint x="370" y="260" />
              <mxPoint x="370" y="-10" />
            </Array>
          </mxGeometry>
        </mxCell>
        <mxCell id="YUqFAI1fPI6s1_6WJg1y-88" value="" style="endArrow=none;html=1;strokeWidth=1;fillColor=#fad9d5;strokeColor=#ae4132;" parent="1" edge="1">
          <mxGeometry width="50" height="50" relative="1" as="geometry">
            <mxPoint x="400" y="190" as="sourcePoint" />
            <mxPoint x="400" as="targetPoint" />
            <Array as="points">
              <mxPoint x="360" y="190" />
              <mxPoint x="360" />
            </Array>
          </mxGeometry>
        </mxCell>
        <mxCell id="YUqFAI1fPI6s1_6WJg1y-89" value="" style="endArrow=none;html=1;strokeWidth=1;fillColor=#fff2cc;strokeColor=#d6b656;" parent="1" edge="1">
          <mxGeometry width="50" height="50" relative="1" as="geometry">
            <mxPoint x="400" y="110" as="sourcePoint" />
            <mxPoint x="400" y="10" as="targetPoint" />
            <Array as="points">
              <mxPoint x="350" y="110" />
              <mxPoint x="350" y="10" />
            </Array>
          </mxGeometry>
        </mxCell>
        <mxCell id="YUqFAI1fPI6s1_6WJg1y-90" value="" style="endArrow=none;dashed=1;html=1;strokeWidth=8;dashPattern=1 1;fillColor=#e1d5e7;strokeColor=#9673a6;" parent="1" edge="1">
          <mxGeometry width="50" height="50" relative="1" as="geometry">
            <mxPoint x="400" y="380" as="sourcePoint" />
            <mxPoint x="520" y="380" as="targetPoint" />
          </mxGeometry>
        </mxCell>
      </root>
    </mxGraphModel>
  </diagram>
</mxfile>
